<svg width="24" height="24" viewBox="0 0 24 24" fill="none" xmlns="http://www.w3.org/2000/svg">
<path d="M3.28745 18.5722C3.40551 18.4756 3.5795 18.4934 3.67612 18.6113L3.74937 18.7011L3.83921 18.6279C3.95734 18.5313 4.13123 18.5485 4.22788 18.6669C4.3245 18.7851 4.30695 18.9587 4.18882 19.0556L4.09995 19.1288L4.17319 19.2187C4.26972 19.3368 4.2522 19.5118 4.13413 19.6083C4.016 19.705 3.84106 19.6874 3.74448 19.5693L3.67222 19.4794L3.58237 19.5527C3.46431 19.6492 3.29035 19.6319 3.1937 19.5136C3.09706 19.3954 3.11368 19.2208 3.23179 19.1239L3.32163 19.0517L3.24839 18.9618C3.15174 18.8437 3.16934 18.6688 3.28745 18.5722Z" fill="#FBFBF7"/>
<path d="M6.20444 16.4687C6.43914 16.4688 6.62915 16.6596 6.62925 16.8945C6.62925 17.1294 6.4392 17.3201 6.20444 17.3202C5.96958 17.3202 5.77866 17.1294 5.77866 16.8945C5.77876 16.6596 5.96964 16.4687 6.20444 16.4687Z" fill="#FBFBF7"/>
<path d="M9.76792 10.7743C10.0028 10.7743 10.1937 10.9651 10.1937 11.2001C10.1935 11.4349 10.0026 11.6259 9.76792 11.6259C9.53321 11.6259 9.34233 11.4349 9.34214 11.2001C9.34214 10.9651 9.53309 10.7743 9.76792 10.7743Z" fill="#FBFBF7"/>
<path d="M14.4349 9.39055C14.6771 9.39055 14.8742 9.58671 14.8744 9.82903C14.8744 10.0715 14.6772 10.2685 14.4349 10.2685C14.1928 10.2682 13.9964 10.0713 13.9964 9.82903C13.9966 9.58685 14.1929 9.39079 14.4349 9.39055Z" fill="#FBFBF7"/>
<path d="M8.598 6.64934C8.83272 6.64947 9.0228 6.84022 9.0228 7.07512C9.02273 7.30995 8.83267 7.50077 8.598 7.5009C8.36321 7.5009 8.1723 7.31004 8.17222 7.07512C8.17222 6.84014 8.36317 6.64934 8.598 6.64934Z" fill="#FBFBF7"/>
<path fill-rule="evenodd" clip-rule="evenodd" d="M5.56577 4.8134L7.24155 5.39836C7.25343 5.38881 8.08313 4.72643 9.63511 4.83977C10.1618 4.87839 11.7981 5.1206 12.4808 6.48918C13.5583 6.22234 14.3581 6.27045 15.4593 6.96868C16.5127 7.63663 16.8685 8.6718 16.8685 8.6718L18.2513 8.51164C18.2513 8.51164 18.9965 8.35964 18.3314 9.31047C18.2231 9.46516 17.9376 9.74057 17.932 9.74602L17.0814 10.6142L17.0121 11.2011L20.6185 10.7743C20.6185 10.7743 21.0432 10.6954 20.9642 11.2109C20.5181 14.1212 17.8792 16.0966 17.8792 16.0966L21.4964 16.2031C21.5031 16.2032 21.7585 16.2099 21.7357 16.4423C21.7101 16.7028 21.3363 16.9482 21.3363 16.9482L20.0335 17.8261C20.0335 17.8261 20.4258 18.049 20.6205 18.1113C20.9203 18.2072 21.2307 18.3553 21.1507 18.4111C21.0672 18.4683 20.1222 18.828 19.7572 18.9111C18.0641 19.2961 15.4857 19.6093 15.4857 19.6093L15.5658 23.8134C15.5658 23.8134 15.5376 24.0029 15.0599 23.9999C14.5864 23.9969 14.5814 23.7694 14.5814 23.7607C14.5814 23.7607 14.5347 19.7702 14.5287 19.7421C11.7945 19.7623 10.4173 18.844 10.4066 18.8368L7.72007 20.8593C7.69367 20.8353 5.6035 18.936 5.59214 18.9169C5.50092 20.9734 3.47028 21.2084 2.61362 20.3544C1.47672 19.221 2.26792 18.1718 2.26792 18.1718C2.26792 18.1718 4.61613 16.0674 5.16734 15.5907C5.71853 15.1143 6.65028 15.2628 7.26792 15.9364C7.6699 16.3747 8.10945 17.5964 7.56675 18.1454C6.963 18.7562 6.09024 18.5149 6.07163 18.5097L7.69956 19.955C7.69956 19.955 9.5151 18.3615 9.52866 18.3583C7.0009 16.8962 6.79059 12.5288 6.78941 12.5038C6.78941 12.5038 5.44469 11.4297 5.16734 11.0136C4.89032 10.5977 5.38023 10.5614 5.38023 10.5614H6.60288L6.47007 6.94231C6.47007 6.94231 5.48853 5.52186 5.30015 5.18547C5.0295 4.70217 5.55889 4.81196 5.56577 4.8134ZM6.86948 16.2822C6.23735 15.6837 5.77866 15.9101 5.77866 15.9101L2.6937 18.5097C2.6937 18.5097 2.45474 19.1449 2.95933 19.7948C3.36344 20.3151 4.18073 20.3005 4.45054 20.1142C5.14247 19.6358 5.03603 18.7905 5.03355 18.7714L5.77866 18.0654C5.77866 18.0654 6.49226 18.3421 7.0023 17.9062C7.41691 17.5517 7.37622 16.762 6.86948 16.2822ZM7.74644 13.1337C7.74644 13.1337 7.7565 13.1414 7.77378 13.1552C7.77724 13.4201 7.86339 16.0222 9.90073 17.6659C12.4307 19.4268 14.7679 19.0907 14.7679 19.0907C14.7679 19.0907 13.253 18.2163 12.5062 16.5683C11.6808 14.7463 11.9486 13.1952 11.9486 13.1952C11.9486 13.1952 11.2257 13.8395 9.82066 13.8339C8.68347 13.8292 7.92308 13.2737 7.77378 13.1552C7.77362 13.1426 7.77378 13.1337 7.77378 13.1337H7.74644ZM9.97105 9.28801C9.6451 9.28801 9.32959 9.33877 9.05015 9.44328C7.17894 10.1432 7.60673 12.2046 7.61362 12.2372L7.6273 12.248C9.97699 14.0586 11.8959 12.5302 11.8959 12.5302C11.8083 11.4666 12.2347 10.2613 12.2416 10.2421C11.7079 9.62453 10.8141 9.29182 9.98472 9.28801H9.97105ZM15.6986 8.45891C14.1468 7.33165 12.9217 8.38412 12.4759 8.8759C13.5666 9.58209 13.6495 11.567 13.6507 11.5986L16.4515 11.2675C16.5829 10.7105 16.795 9.2554 15.6986 8.45891ZM7.16148 10.5341C7.16495 10.5186 7.29567 9.94729 7.6937 9.52336C7.43235 9.54598 7.13511 9.25676 7.13511 9.25676L7.16148 10.5341ZM10.3265 5.93059C9.15898 5.22767 8.01586 5.7075 7.56089 6.27629C7.03394 6.93573 7.01027 8.07861 7.26792 8.53899C7.432 8.83177 7.83122 8.97131 8.17124 9.03703C8.89455 8.41812 9.71669 8.22715 10.5628 8.30266C10.7801 7.76485 11.1945 6.45325 10.3265 5.93059Z" fill="#FBFBF7"/>
<path d="M19.4222 4.57414C19.6187 4.43962 19.7374 4.49587 19.9046 4.6845C20.0718 4.87313 20.1478 5.11222 19.8207 5.26653C18.9058 5.85118 18.6384 6.16674 18.2171 6.38176C17.7957 6.59697 17.8077 6.27941 17.7064 6.21868C17.6051 6.15801 17.0035 5.87249 17.6507 5.57903C18.2983 5.2855 19.4222 4.57414 19.4222 4.57414Z" fill="#FBFBF7"/>
<path d="M15.1429 1.32512C15.1429 1.32512 15.4676 1.03994 15.6224 1.11809C15.7768 1.19652 15.7819 1.45256 15.6419 1.64641C15.5021 1.84029 14.797 3.2722 14.723 3.42668C14.6493 3.58076 14.5421 4.09385 13.9222 4.08586C13.3137 4.07816 13.6191 3.59063 13.6302 3.57317C13.6302 3.57317 14.0636 2.87931 14.4535 2.09172C14.8434 1.30397 15.1429 1.32512 15.1429 1.32512Z" fill="#FBFBF7"/>
<path d="M8.62339 0.151293C8.89438 -0.192493 9.17458 0.156177 9.18003 0.163012C9.15214 0.905097 9.5804 2.8049 9.62241 2.97356C9.66417 3.14095 9.03798 3.43724 8.91538 3.21184C8.62028 2.3152 8.50668 1.07852 8.47398 0.767504C8.4424 0.463996 8.60122 0.447769 8.60874 0.447192C8.60875 0.435444 8.60937 0.169502 8.62339 0.151293Z" fill="#FBFBF7"/>
</svg>
